<svg width="935" height="627" viewBox="0 0 935 627" fill="none" xmlns="http://www.w3.org/2000/svg">
<path d="M88.9836 335.175H30.5364C9.43687 430.625 -0.833039 467.99 8.40837 522.512C8.73963 524.467 10.4441 525.898 12.4263 525.898H109.7C110.872 525.898 111.989 525.422 112.703 524.493C136.87 493.031 107.159 385.664 88.9836 335.175Z" fill="#FF9D05"/>
<path d="M30.5364 198.29V335.175H88.9836V222.637L30.5364 198.29Z" fill="#FFC107"/>
<path fill-rule="evenodd" clip-rule="evenodd" d="M485.525 5.68508L30.5364 198.29L88.9836 222.637L180.243 260.652L486.365 388.171C486.863 388.379 487.423 388.376 487.919 388.165L775.995 265.236L924.11 202.032C927.422 200.619 927.435 195.929 924.132 194.497L488.756 5.69917C487.726 5.25269 486.559 5.2476 485.525 5.68508Z" fill="#808080"/>
<path d="M487.919 388.165C487.423 388.376 486.863 388.379 486.365 388.171L180.243 260.652V465.288C180.243 467.597 182.095 469.448 184.404 469.432C249.321 468.983 390.922 496.635 475.612 611.949C477.169 614.069 480.288 614.287 482.089 612.37C523.647 568.125 633.689 483.777 772.253 469.86C774.363 469.648 775.995 467.877 775.995 465.756V265.236L487.919 388.165Z" fill="#686868"/>
<path d="M30.5364 198.29V335.175M30.5364 198.29L88.9836 222.637M30.5364 198.29L485.525 5.68508M180.243 260.652L486.365 388.171C486.863 388.379 487.423 388.376 487.919 388.165L775.995 265.236M180.243 260.652L88.9836 222.637M180.243 260.652V465.288M775.995 265.236L924.11 202.032M775.995 265.236V465.756M30.5364 335.175H88.9836M30.5364 335.175C9.43687 430.625 -0.833039 467.99 8.40837 522.512M88.9836 335.175V222.637M88.9836 335.175C107.159 385.664 136.87 493.031 112.703 524.493M61.298 400.8V483.857M485.525 5.68508C486.559 5.2476 487.726 5.25269 488.756 5.69917M485.525 5.68508L486.355 5.33405C486.859 5.12073 487.428 5.12321 487.93 5.34093L488.756 5.69917M488.756 5.69917L924.132 194.497M924.132 194.497C927.435 195.929 927.422 200.619 924.11 202.032M924.132 194.497L928.614 196.44C930.225 197.139 930.218 199.426 928.603 200.115L924.11 202.032M775.995 465.756C775.995 467.877 774.363 469.648 772.253 469.86M775.995 465.756V467.675C775.995 468.709 775.206 469.573 774.176 469.671C773.534 469.732 772.893 469.795 772.253 469.86M772.253 469.86C633.689 483.777 523.647 568.125 482.089 612.37M482.089 612.37C480.288 614.287 477.169 614.069 475.612 611.949M482.089 612.37C481.483 613.015 480.891 613.652 480.314 614.28C479.447 615.224 477.926 615.137 477.176 614.097C476.657 613.378 476.136 612.662 475.612 611.949M475.612 611.949C390.922 496.635 249.321 468.983 184.404 469.432M184.404 469.432C182.095 469.448 180.243 467.597 180.243 465.288M184.404 469.432C183.692 469.437 182.99 469.445 182.297 469.457C181.172 469.476 180.243 468.573 180.243 467.447V465.288M112.703 524.493C111.989 525.422 110.872 525.898 109.7 525.898M112.703 524.493C112.514 524.739 112.322 524.98 112.127 525.216C111.763 525.656 111.215 525.898 110.644 525.898H109.7M109.7 525.898H12.4263M12.4263 525.898C10.4441 525.898 8.73963 524.467 8.40837 522.512M12.4263 525.898H10.6724C9.70581 525.898 8.87678 525.207 8.70932 524.255C8.6068 523.672 8.50649 523.091 8.40837 522.512" stroke="black" stroke-width="9" stroke-linecap="round"/>
<path d="M477.607 154.055C498.842 154.055 517.804 159.362 531.279 167.654C544.842 176.001 552.087 186.804 552.087 197.773C552.087 208.743 544.842 219.546 531.279 227.893C517.804 236.184 498.842 241.492 477.607 241.492C456.371 241.492 437.409 236.184 423.935 227.893C410.372 219.546 403.126 208.743 403.126 197.773C403.126 186.804 410.371 176.001 423.935 167.654C437.409 159.363 456.371 154.055 477.607 154.055Z" fill="#FCD462" stroke="black" stroke-width="11"/>
<circle cx="62.3239" cy="576.142" r="46.2441" fill="#FCD462" stroke="black" stroke-width="8"/>
</svg>
